HIERARCHY
ROOT Hips
{
	OFFSET -3.958830 18.904000 13.208200
	CHANNELS 6 Xposition Yposition Zposition Zrotation Yrotation Xrotation 
	JOINT LHipJoint
	{
		OFFSET 0.000000 0.000000 0.000000
		CHANNELS 3 Zrotation Yrotation Xrotation
		JOINT LeftUpLeg
		{
			OFFSET 1.800000 -1.400000 0.085000
			CHANNELS 3 Zrotation Yrotation Xrotation
			JOINT LeftLeg
			{
				OFFSET 2.215000 -6.000000 0.000000
				CHANNELS 3 Zrotation Yrotation Xrotation
				JOINT LeftFoot
				{
					OFFSET 2.500000 -6.900000 0.000000
					CHANNELS 3 Zrotation Yrotation Xrotation
					JOINT LeftToeBase
					{
						OFFSET 0.200000 -0.500000 1.950000
						CHANNELS 3 Zrotation Yrotation Xrotation
						End Site
						{
							OFFSET 0.000000 0.000000 0.000000
						}
					}
				}
			}
		}
	}
	JOINT RHipJoint
	{
		OFFSET 0.000000 0.000000 0.000000
		CHANNELS 3 Zrotation Yrotation Xrotation
		JOINT RightUpLeg
		{
			OFFSET -1.800000 -1.400000 0.085000
			CHANNELS 3 Zrotation Yrotation Xrotation
			JOINT RightLeg
			{
				OFFSET -2.215000 -6.000000 0.000000
				CHANNELS 3 Zrotation Yrotation Xrotation
				JOINT RightFoot
				{
					OFFSET -2.500000 -6.900000 0.000000
					CHANNELS 3 Zrotation Yrotation Xrotation
					JOINT RightToeBase
					{
						OFFSET -0.200000 -0.500000 1.950000
						CHANNELS 3 Zrotation Yrotation Xrotation
						End Site
						{
							OFFSET 0.000000 0.000000 0.000000
						}
					}
				}
			}
		}
	}
	JOINT LowerBack
	{
		OFFSET 0.000000 0.000000 0.000000
		CHANNELS 3 Zrotation Yrotation Xrotation
		JOINT Spine
		{
			OFFSET -0.087000 1.940000 -0.288900
			CHANNELS 3 Zrotation Yrotation Xrotation
			JOINT Spine1
			{
				OFFSET 0.000000 1.950000 0.060000
				CHANNELS 3 Zrotation Yrotation Xrotation
				JOINT Neck
				{
					OFFSET 0.000000 0.000000 0.000000
					CHANNELS 3 Zrotation Yrotation Xrotation
					JOINT Neck1
					{
						OFFSET 0.000000 1.600000 0.340000
						CHANNELS 3 Zrotation Yrotation Xrotation
						JOINT Head
						{
							OFFSET 0.000000 1.667000 -0.240000
							CHANNELS 3 Zrotation Yrotation Xrotation
							End Site
							{
								OFFSET 0.000000 0.000000 0.000000
							}
						}
					}
				}
				JOINT LeftShoulder
				{
					OFFSET 0.000000 0.000000 0.000000
					CHANNELS 3 Zrotation Yrotation Xrotation
					JOINT LeftArm
					{
						OFFSET 2.700000 1.550000 -0.730000
						CHANNELS 3 Zrotation Yrotation Xrotation
						JOINT LeftForeArm
						{
							OFFSET 5.450000 0.000000 0.000000
							CHANNELS 3 Zrotation Yrotation Xrotation
							JOINT LeftHand
							{
								OFFSET 3.450000 0.000000 0.000000
								CHANNELS 3 Zrotation Yrotation Xrotation
								JOINT LeftHandIndex1
								{
									OFFSET 0.750000 0.000000 0.000000
									CHANNELS 3 Zrotation Yrotation Xrotation
									End Site
									{
										OFFSET 0.000000 0.000000 0.000000
									}
								}
							}
						}
					}
				}
				JOINT RightShoulder
				{
					OFFSET 0.000000 0.000000 0.000000
					CHANNELS 3 Zrotation Yrotation Xrotation
					JOINT RightArm
					{
						OFFSET -2.700000 1.550000 -0.730000
						CHANNELS 3 Zrotation Yrotation Xrotation
						JOINT RightForeArm
						{
							OFFSET -5.450000 0.000000 0.000000
							CHANNELS 3 Zrotation Yrotation Xrotation
							JOINT RightHand
							{
								OFFSET -3.450000 0.000000 0.000000
								CHANNELS 3 Zrotation Yrotation Xrotation
								JOINT RightHandIndex1
								{
									OFFSET -0.750000 0.000000 0.000000
									CHANNELS 3 Zrotation Yrotation Xrotation
									End Site
									{
										OFFSET 0.000000 0.000000 0.000000
									}
								}
							}
						}
					}
				}
			}
		}
	}
}
MOTION
Frames: 12
Frame Time: 0.016667
0.337600 16.668560 -1.309370 -22.098461 -6.706848 -3.590946 -14.944466 11.718340 1.093459 15.421793 -0.875206 -5.354806 -1.132451 4.802008 10.223076 -0.796974 4.571552 3.252224 0.570150 -0.019540 0.418070 19.015030 -7.532369 7.306478 -32.552234 8.297670 -59.171998 62.841462 -56.700052 55.614397 -3.360654 -14.864872 0.144848 0.177780 0.356790 0.246010 -4.980723 -1.853952 -8.883740 29.403380 -8.032768 24.698864 -5.954324 -2.392347 5.357080 2.308383 -4.205877 -6.845557 -8.167725 4.532562 31.756833 -1.204170 0.612000 -11.661380 -21.222267 0.428158 1.238594 -22.943527 9.332196 -6.995681 -132.883323 -78.587929 116.770144 -3.759567 2.860849 0.696360 0.207370 -0.182260 0.301530 16.140978 0.495752 3.942328 25.228271 -2.127489 -5.481912 -115.661613 67.226986 -100.187410 1.780120 -0.263983 -0.374600 0.352290 0.018010 -0.400830 
0.312470 16.605690 -1.324910 -21.992779 -10.051099 -2.166014 -14.929675 11.741681 1.085347 14.776089 -0.765083 -5.671644 -0.702396 4.672883 10.471179 -0.814468 4.465528 3.271120 0.606280 0.028040 0.438880 19.005008 -7.665878 7.234561 -31.804876 9.455504 -57.638133 62.575003 -56.763671 56.332058 -3.401104 -14.997981 0.098082 0.204560 0.336840 0.263460 -5.044673 -1.682792 -8.801034 28.814056 -7.016047 23.912192 -5.673548 -1.919156 5.773436 2.136757 -4.104194 -6.727700 -7.824879 5.355089 31.600665 -1.371940 1.388380 -11.589240 -20.680545 1.013670 1.361864 -22.079800 10.835213 -6.779394 -127.646919 -77.283510 108.953711 -3.807549 2.863979 0.681080 0.209740 -0.172100 0.303640 15.906252 0.104196 3.536413 24.209518 -1.946498 -5.598791 -120.903778 67.670341 -108.781536 1.816530 -0.952918 -0.350270 0.324510 0.001790 -0.400760 
0.286120 16.528140 -1.330010 -21.754582 -12.270377 -1.149302 -14.913703 11.834759 1.128065 13.942811 -0.695705 -6.002654 -0.348682 4.546036 10.682259 -0.849501 4.387526 3.300766 0.622270 0.039720 0.474440 18.969891 -7.894765 7.014376 -30.630931 9.788376 -53.827494 62.859039 -56.101630 55.589496 -3.362447 -14.833142 0.118673 0.221730 0.328350 0.265020 -5.048177 -1.611739 -8.691850 27.901823 -6.170499 22.891215 -5.228334 -1.761560 6.169446 2.077982 -3.649037 -6.570541 -6.992329 5.718806 31.878955 -2.043780 2.226230 -11.490420 -20.814392 0.895665 1.483686 -20.819163 11.773667 -6.471184 -122.081333 -76.168690 100.838863 -3.884565 2.801963 0.686430 0.216490 -0.165330 0.300990 16.176606 0.007356 3.187762 23.399084 -2.572113 -6.514816 -127.425136 67.670594 -117.837726 1.770988 -1.479944 -0.360430 0.328810 -0.009700 -0.417980 
0.252140 16.447000 -1.330490 -20.798971 -14.935001 -0.964602 -14.932465 11.996971 1.200135 12.604155 -0.465224 -5.591084 -0.213768 4.550501 11.129384 -0.853785 4.365306 3.302954 0.631320 0.040900 0.493320 18.896305 -8.042525 6.828199 -29.493543 10.557837 -49.810280 60.862269 -55.316306 57.015389 -3.373890 -14.911501 0.081719 0.221530 0.308590 0.260500 -4.945322 -1.757710 -8.639166 25.767602 -5.103959 23.075943 -4.383896 -1.437052 6.223033 1.818051 -3.628728 -6.537398 -7.097698 6.502969 32.696667 -1.632040 2.752700 -11.751870 -20.778324 1.023457 1.619308 -20.290204 12.432924 -6.227304 -115.567675 -75.205909 91.504077 -3.958750 2.744986 0.707170 0.197840 -0.154820 0.289630 16.666825 0.224347 2.916801 23.145514 -3.595737 -7.880715 -136.310561 67.546129 -129.588791 1.693173 -1.859203 -0.362290 0.324710 -0.010360 -0.430500 
0.195990 16.356000 -1.342210 -19.302862 -17.009778 -0.575591 -15.001889 12.232315 1.257955 11.065785 -0.323770 -6.598311 -0.082190 4.698025 12.910500 -0.840602 4.330942 3.311043 0.610260 0.034090 0.479070 18.773793 -8.112151 6.671677 -28.227888 11.076914 -46.194315 57.634281 -54.467683 59.306375 -3.398778 -15.113865 0.036049 0.209410 0.319880 0.256710 -4.664384 -2.155975 -8.631050 22.009490 -3.667903 23.071339 -2.467383 -0.893148 5.940627 1.507086 -3.374849 -6.640815 -6.797771 6.776225 32.699739 -1.900800 3.298760 -11.310100 -20.727983 1.232935 1.895502 -20.517823 13.078372 -5.918396 -109.876605 -74.276255 83.229176 -4.045710 2.771662 0.690190 0.210490 -0.154410 0.291100 17.331777 0.439675 2.783560 23.058613 -5.137931 -9.076096 -144.188397 66.623605 -139.807814 1.624500 -2.033829 -0.359200 0.329610 -0.010480 -0.420180 
0.147050 16.280960 -1.354510 -17.704717 -19.145985 -0.319850 -15.090321 12.465538 1.346321 9.594472 -0.264159 -7.965999 -0.441214 5.076836 15.235102 -0.819711 4.417489 3.279393 0.561820 -0.010080 0.437390 18.635517 -8.148516 6.489956 -26.405761 11.865058 -42.820296 52.079721 -52.629232 62.973723 -3.434186 -15.518231 -0.057484 0.183860 0.359810 0.251110 -4.321490 -2.608206 -8.628318 18.251270 -2.394698 22.969167 -0.539000 -0.361796 5.350888 1.158945 -3.456240 -6.674998 -7.121088 7.314862 32.673126 -2.117180 3.757470 -10.033030 -21.064265 1.811738 2.108006 -21.538395 13.412478 -5.438356 -100.551969 -73.909226 72.059822 -4.154323 2.849903 0.667020 0.239300 -0.178800 0.292400 18.494348 0.597262 2.671957 23.240760 -6.336361 -9.910711 -150.631675 65.211883 -148.357799 1.568575 -2.109835 -0.372340 0.340730 0.010310 -0.407570 
0.120400 16.214840 -1.364250 -16.847270 -21.330241 0.101817 -15.110651 12.594404 1.436927 8.638826 -0.321536 -9.542691 -0.777369 5.361695 16.959829 -0.778169 4.449483 3.263093 0.545410 -0.008260 0.413210 18.568628 -8.291677 6.254153 -24.180943 12.587067 -39.468298 45.873677 -50.298286 66.843263 -3.469690 -15.913500 -0.150441 0.175850 0.381070 0.244010 -4.190163 -2.730823 -8.557084 16.706411 -1.831656 22.362983 0.019508 -0.141037 4.786004 0.975695 -3.889749 -6.474813 -7.976508 8.063391 32.661827 -2.289280 4.192680 -8.730420 -21.593821 2.797194 2.038903 -22.988254 13.238767 -5.114019 -87.075183 -73.249292 58.580016 -4.100242 3.184440 0.623640 0.258070 -0.192160 0.304960 19.417409 0.262511 2.443246 23.931460 -7.000845 -10.353182 -157.146060 64.471885 -157.785395 1.530929 -2.168407 -0.359550 0.339330 0.001930 -0.383070 
0.097970 16.160410 -1.373260 -15.331489 -23.218546 -0.206119 -15.137141 12.790281 1.580416 7.054226 -0.445857 -11.173070 -0.699258 5.700282 19.881153 -0.751803 4.601606 3.187329 0.541930 -0.012070 0.401930 18.483805 -8.532363 5.905090 -22.168547 12.504025 -35.026270 40.668456 -46.762780 68.352638 -3.394935 -15.848684 -0.163232 0.170650 0.382700 0.243040 -3.993462 -2.887302 -8.457301 14.480704 -1.274872 22.062884 0.256639 0.061464 4.538784 0.862862 -4.185243 -6.342632 -8.714587 8.666844 33.140269 -2.020850 4.391530 -8.182850 -22.561074 2.954483 1.759890 -24.222131 13.342355 -5.988146 -74.337930 -71.823646 47.118001 -3.952624 3.441310 0.622620 0.253720 -0.193130 0.309270 20.667797 0.496642 2.631335 24.978341 -8.144995 -11.032089 -163.164267 63.769222 -167.323442 1.494462 -2.181586 -0.356560 0.334010 0.003040 -0.377250 
0.078850 16.113200 -1.379360 -13.704337 -25.292692 -0.758524 -15.162905 13.015152 1.783269 5.501368 -0.631869 -12.452464 -0.641780 6.058721 22.720615 -0.680843 4.818614 3.088733 0.513860 -0.026690 0.369740 18.392763 -8.832484 5.458903 -20.042712 12.014316 -30.087755 35.814950 -42.449999 68.387270 -3.229047 -15.447452 -0.088016 0.147920 0.386760 0.232920 -3.768419 -3.050765 -8.349491 12.262735 -0.850549 21.826310 0.313587 0.262121 4.116459 0.870180 -4.632684 -6.282452 -9.831209 9.443718 34.166970 -1.800550 4.659470 -7.441190 -23.290610 3.253975 1.411558 -26.458552 13.244831 -7.216590 -62.421222 -69.889810 36.958492 -3.850032 3.519784 0.609770 0.250290 -0.193710 0.305140 21.435869 0.691572 2.846060 25.944407 -8.833815 -11.502943 -170.091644 64.054105 -178.384591 1.478767 -2.141616 -0.346320 0.331890 0.013190 -0.361020 
0.051990 16.063840 -1.379470 -12.239668 -27.417459 -1.151619 -15.149432 13.170505 1.990913 4.314451 -0.867237 -13.267982 -0.800319 6.335896 24.723068 -0.598206 4.993923 3.005059 0.528350 -0.003300 0.379450 18.344702 -9.236991 4.953698 -17.864361 11.135177 -25.007998 31.987470 -37.772915 66.361485 -2.992173 -14.678179 0.068219 0.138840 0.368360 0.244630 -3.666715 -2.951706 -8.182675 10.757382 -0.398858 20.814138 -0.399138 0.548194 4.111913 0.974655 -4.868894 -6.109958 -10.456939 10.169855 35.072597 -1.607480 5.220560 -6.865610 -24.149661 3.525739 0.897008 -28.257352 12.470622 -8.128723 -52.273883 -67.432173 28.588388 -3.775953 3.553531 0.591000 0.240680 -0.176140 0.307850 22.046010 0.555577 3.075616 27.801978 -9.633364 -11.985654 -178.741208 64.735605 167.933912 1.471699 -2.090091 -0.308580 0.303750 -0.004700 -0.346670 
0.038710 16.014300 -1.380740 -10.742527 -29.905311 -1.138040 -15.128506 13.255169 2.221481 3.047408 -1.231331 -14.147350 -1.376501 6.645107 26.156404 -0.587857 5.211702 2.930425 0.479770 -0.057510 0.333840 18.318805 -9.638985 4.454707 -15.989018 10.098840 -20.823916 28.205177 -32.912663 63.472628 -2.670172 -13.731404 0.287701 0.123430 0.419490 0.241570 -3.618725 -2.747185 -7.999914 9.636059 0.128718 19.407470 -1.433873 1.018060 3.871521 1.120213 -5.175347 -5.792092 -11.008338 10.850718 35.020068 -1.579570 5.728130 -5.868860 -25.304303 3.964593 0.265637 -29.961474 11.541539 -8.671321 -43.472168 -65.259265 21.944345 -3.786133 3.502459 0.588370 0.273560 -0.209420 0.303690 22.797429 0.239801 3.258865 29.244980 -10.491411 -12.305896 172.236083 65.626640 154.432635 1.444450 -1.973742 -0.342570 0.326400 0.036090 -0.346880 
0.019770 15.962480 -1.380040 -9.656739 -32.543927 -0.485058 -15.076805 13.247009 2.425338 2.371701 -1.616976 -15.193112 -2.518025 7.080157 26.969675 -0.531017 5.375562 2.873326 0.452230 -0.088120 0.302540 18.337737 -10.064652 3.979530 -13.939932 8.918767 -17.227907 24.740299 -28.167251 59.597961 -2.303494 -12.611186 0.567876 0.107030 0.459630 0.253440 -3.712656 -2.326001 -7.764495 9.409621 0.654627 17.008124 -2.627013 1.472944 3.965946 1.198870 -5.436170 -5.462244 -11.372869 11.362935 34.839718 -1.325650 6.134060 -3.873650 -25.597491 4.746932 -0.216374 -31.922082 10.041665 -8.522777 -39.223836 -61.961413 18.372622 -3.811774 3.499879 0.539220 0.311220 -0.246070 0.307550 22.756810 -0.492899 3.217923 31.564863 -10.430831 -12.536644 160.963502 67.238664 139.251665 1.455256 -1.826598 -0.335960 0.304860 0.046470 -0.329620 
